<?xml version="1.0" encoding="UTF-8" standalone="no"?>
<svg
   xmlns:svg="http://www.w3.org/2000/svg"
   xmlns="http://www.w3.org/2000/svg"
   id="SVGRoot"
   version="1.1"
   viewBox="0 0 400 250">
  <defs
     id="defs815" />
  <style>
         svg {
            background-color: transparent;
         }
         @keyframes blink {
            from {
               fill: var(--color);
            }
            to {
               fill: var(--color-lit);
            }
         }
         .light {
            --delay: 0s;
            animation: 1s steps(2, end) var(--delay) infinite blink;
         }
         .light:hover {
            --color: orange;
            --color-lit: yellow;
         }
         .star:hover {
            --color: hotpink;
            --color-lit: pink;
         }
         .filament {
            fill:#1a1a1a;
         }
         .base {
            fill:#333333;
         }
         .star {
            --color: #c8ab37;
            --color-lit: #ffcc00ff;
            --delay: 0s;
            animation: 2s ease-in-out var(--delay) infinite alternate blink;
            fill:#c8ab37;
         }
         .cord {
            fill:#333333;
         }
         .-green {
            --color: #1f6f1f;
            --color-lit: #00d400ff;
            fill:#1f6f1f;
         }
         .-red {
            --color: #a50000;
            --color-lit: #ff2a2aff;
            fill:#a50000;
         }
         .-blue {
            --color: #00388bff;
            --color-lit: #2a7fffff;
            fill:#00388b;
         }

         #light-1 {
            --delay: 0s;
         }
         #light-2 {
            --delay: 0.15s;
         }
         #light-3 {
            --delay: 0.2s;
         }
         #light-4 {
            --delay: 0.4s;
         }
         #light-5 {
            --delay: 0.7s;
         }
         #light-6 {
            --delay: calc(0.7s + 0.15s);
         }
         #light-7 {
            --delay: calc(0.7s + 0.2s);
         }
         #light-8 {
            --delay: calc(0.7s + 0.4s);
         }
         #light-9 {
            --delay: calc(0.7s + 0.7s);
         }
         #star-1 {
            --delay: 0s;
         }
         #star-2 {
            --delay: 2s;
         }
         #star-3 {
            --delay: 3s;
         }
  </style>
  <g
     id="layer1">
    <path
       id="light-1"
       d="m 6.4743431,159.02252 c -3.4730378,3.24616 -0.2820555,11.83439 1.5325348,17.25592 3.2585021,8.78231 5.6712651,18.20424 11.5753761,25.6886 3.876535,4.86385 9.257376,9.02773 15.617578,9.7067 5.244477,0.74898 11.035152,-0.93945 14.351027,-5.24097 3.931595,-4.99766 4.024153,-12.09611 1.700719,-17.81042 -1.911741,-5.13431 -5.745611,-9.2481 -9.752986,-12.85261 -6.996841,-5.78289 -11.623813,-9.1222 -19.375991,-13.73133 -4.14117,-2.08293 -11.607719,-6.71676 -15.6482579,-3.01589 z"
      class="light -green" />
    <path
       id="filament-1"
       d="m 39.371361,186.81193 c -1.154005,1.11347 -1.298134,2.91595 -0.889389,4.39154 0.555254,2.00715 1.575232,3.85805 2.615375,5.63567 0.150959,0.25353 -0.266199,0.39531 -0.355617,0.59124 -0.918617,0.97357 -1.86364,1.96396 -2.95007,2.75125 -1.582822,-1.23133 -3.173509,-2.66051 -5.208544,-3.04579 -1.412104,-0.30976 -2.978735,0.15581 -3.905064,1.28758 -1.338425,1.5113 -1.047875,4.16273 0.643252,5.29821 1.423588,1.00223 3.340496,0.83611 4.867517,0.17072 1.247506,-0.51973 2.378961,-1.2704 3.496758,-2.0205 1.27937,1.36538 2.609682,2.6917 3.565193,4.31019 0.611163,0.89688 1.070421,1.89467 1.630517,2.82367 0.286351,0.28448 0.934216,0.23094 1.007309,-0.23103 0.143914,-0.4799 -0.296978,-0.90301 -0.447048,-1.32789 -1.139952,-2.28882 -2.764045,-4.28744 -4.505792,-6.14255 -0.457712,-0.29407 0.236272,-0.50471 0.424786,-0.75197 0.92543,-0.76649 1.724759,-1.66746 2.570878,-2.51473 1.794992,2.317 3.870332,4.47608 6.362251,6.05252 0.381463,0.29 0.941049,-0.0209 0.949838,-0.48456 -0.02931,-0.55113 -0.679455,-0.74807 -1.029786,-1.06987 -1.552278,-1.11987 -2.919306,-2.45415 -4.165899,-3.90511 -0.461171,-0.51822 -0.901426,-1.05624 -1.303755,-1.62445 1.122565,-1.44637 2.162684,-2.99349 2.831301,-4.70618 0.586829,-1.59477 0.633545,-3.54605 -0.457115,-4.94263 -1.032303,-1.45125 -3.122213,-2.01948 -4.732563,-1.23958 -0.398636,0.17979 -0.7278,0.46858 -1.014328,0.69425 z m 0.954963,0.8276 c 0.931567,-0.91052 2.582054,-0.81898 3.480182,0.11566 1.001379,0.95569 1.110149,2.4875 0.722491,3.74745 -0.505961,1.61616 -1.526985,3.01748 -2.500279,4.38828 -0.863561,-1.35371 -1.572123,-2.8084 -2.133056,-4.31477 -0.429209,-1.15316 -0.6505,-2.60242 0.16193,-3.64441 0.09596,-0.11912 0.169272,-0.19317 0.268736,-0.29221 z M 29.793176,199.0682 c 0.802636,-0.84253 2.098613,-0.93617 3.146507,-0.56106 1.430263,0.48793 2.621978,1.4933 3.753303,2.43986 0.07329,0.12532 -0.212738,0.20044 -0.287359,0.28314 -1.443482,0.88692 -2.951594,1.94966 -4.709049,1.97207 -1.144988,0.0303 -2.32982,-0.73496 -2.57463,-1.89528 -0.02352,-0.87686 0.145831,-1.73679 0.671228,-2.23873 z"
      class="filament" />
    <path
       id="base-1"
       d="m 35.42646,211.61906 c 2.022828,3.48594 5.936298,7.6771 8.822084,10.44473 1.437174,1.27085 3.836481,1.1839 5.858629,0.23944 1.883182,-0.81119 3.506215,-2.21515 4.965555,-3.69716 2.086605,-2.11803 4.363336,-4.16065 5.913019,-6.68149 1.183093,-1.88344 1.788857,-4.24372 0.860883,-5.94474 -1.204311,-1.75939 -2.705298,-3.27694 -4.049848,-4.92042 -1.45101,-1.69485 -3.649377,-4.67936 -5.079617,-6.38824 -5.668438,10.57038 -5.772546,10.57074 -17.290705,16.94788 z"
       class="base"
        />
    <path
       id="star-1"
       d="m 345.10416,97.530802 c 1.1298,-0.11274 0.68637,-1.57532 0.8024,-2.32469 0.2969,-13.22946 0.36963,-26.46274 0.62527,-39.69293 9.44929,7.23892 18.73892,14.74142 28.19796,21.98074 0.67986,0.28843 1.77403,-0.88389 0.89459,-1.36243 -8.00521,-6.72648 -16.38471,-12.99666 -24.53681,-19.54191 -1.16087,-0.92636 -2.32942,-1.84339 -3.47505,-2.78858 7.80444,-4.56303 15.84536,-8.71544 23.61005,-13.34491 0.67897,-0.20721 1.26465,-1.26248 0.42571,-1.65107 -1.00562,-0.2054 -1.90335,0.72198 -2.80814,1.03848 -7.46954,4.01053 -14.83146,8.21909 -22.29415,12.24256 0.0519,-11.83208 0.39591,-23.66374 0.32386,-35.49552 0.157,-0.70447 -0.40105,-1.84587 -1.23398,-1.35586 -1.051,0.64112 -0.37387,2.07273 -0.589,3.0738 -0.1748,11.01123 -0.25033,22.02461 -0.52691,33.03388 -7.71522,-5.76453 -15.11866,-11.94407 -22.88395,-17.63866 -0.97639,-0.22898 -1.54199,1.35195 -0.52055,1.71829 7.57348,6.05313 15.24974,11.99098 22.85898,17.99024 -10.83382,6.30247 -21.92378,12.17216 -32.79346,18.40066 -0.59463,0.66918 0.18508,1.94598 1.04409,1.43493 10.80941,-5.83063 21.48625,-11.92292 32.29006,-17.75363 -0.0367,13.49739 -0.42534,26.99354 -0.37945,40.4905 -0.0155,0.68997 0.0778,1.57188 0.96848,1.54611 z"
       class="star" />
    <path
       id="star-2"
       d="m 188.79893,246.93677 c -1.1298,-0.11274 -0.68637,-1.57531 -0.8024,-2.32468 -0.2969,-13.22947 -0.36963,-26.46274 -0.62527,-39.69294 -9.44929,7.23893 -18.73892,14.74142 -28.19796,21.98074 -0.67986,0.28843 -1.77403,-0.88389 -0.89459,-1.36242 8.00521,-6.72648 16.38471,-12.99666 24.53681,-19.54192 1.16087,-0.92636 2.32942,-1.84339 3.47505,-2.78858 -7.80444,-4.56303 -15.84536,-8.71544 -23.61005,-13.34491 -0.67897,-0.20721 -1.26465,-1.26248 -0.42571,-1.65107 1.00562,-0.2054 1.90335,0.72198 2.80814,1.03848 7.46954,4.01053 14.83146,8.21909 22.29415,12.24256 -0.0519,-11.83208 -0.39591,-23.66374 -0.32386,-35.49552 -0.157,-0.70447 0.40105,-1.84587 1.23398,-1.35586 1.051,0.64112 0.37387,2.07273 0.589,3.0738 0.1748,11.01123 0.25033,22.02461 0.52691,33.03388 7.71522,-5.76453 15.11866,-11.94407 22.88395,-17.63866 0.97639,-0.22898 1.54199,1.35195 0.52055,1.71829 -7.57348,6.05313 -15.24974,11.99098 -22.85898,17.99024 10.83382,6.30247 21.92378,12.17217 32.79346,18.40067 0.59463,0.66917 -0.18508,1.94597 -1.04409,1.43493 -10.80941,-5.83063 -21.48625,-11.92293 -32.29006,-17.75364 0.0367,13.4974 0.42534,26.99354 0.37945,40.4905 0.0155,0.68997 -0.0778,1.57188 -0.96848,1.54611 z"
       class="star" />
    <path
       id="star-3"
       d="m 40.831991,73.588317 c 1.1298,0.11274 0.68637,1.57531 0.8024,2.32468 0.2969,13.22946 0.36963,26.462733 0.62527,39.692923 9.44929,-7.23892 18.73892,-14.74141 28.197957,-21.980733 0.67986,-0.28844 1.77403,0.88389 0.89459,1.36242 -8.005207,6.726483 -16.384707,12.996663 -24.536807,19.541913 -1.16087,0.92636 -2.32942,1.84339 -3.47505,2.78858 7.80444,4.56303 15.84536,8.71544 23.61005,13.34491 0.67897,0.20721 1.264647,1.26248 0.42571,1.65107 -1.00562,0.2054 -1.90335,-0.72198 -2.80814,-1.03848 -7.46954,-4.01053 -14.83146,-8.21909 -22.29415,-12.24256 0.0519,11.83208 0.39591,23.66374 0.32386,35.49552 0.157,0.70447 -0.40105,1.84587 -1.23398,1.35586 -1.051,-0.64112 -0.37387,-2.07273 -0.589,-3.0738 -0.1748,-11.01123 -0.25033,-22.02461 -0.52691,-33.03388 -7.71522,5.76453 -15.11866,11.94407 -22.88395,17.63866 -0.97639,0.22898 -1.54199,-1.35195 -0.52055,-1.71829 7.57348,-6.05313 15.24974,-11.99098 22.85898,-17.99024 -10.83382,-6.30247 -21.92378,-12.17216 -32.793461,-18.400663 -0.59463,-0.66918 0.18508,-1.94598 1.044094,-1.43493 10.809407,5.830633 21.486247,11.922923 32.290057,17.753633 -0.0367,-13.49739 -0.42534,-26.993543 -0.37945,-40.490483 -0.0155,-0.68997 0.0778,-1.57188 0.96848,-1.54611 z"
       class="star" />
    <path
       id="cord"
       d="m 185.71093,21.795546 c -18.39365,0.03183 -35.85832,9.104254 -48.17909,22.464294 -15.35599,15.98164 -23.98084,36.85614 -30.82914,57.58768 -7.79716,22.67509 -14.25482,46.09882 -26.812855,66.73825 -13.388854,23.12329 -32.328067,42.5886 -53.608602,58.55255 -1.433205,0.53057 -1.412135,3.12203 0.394532,2.52637 7.035642,-4.00179 13.05025,-9.64351 19.173828,-14.9043 25.381057,-22.85483 44.217347,-52.6787 54.508987,-85.21099 9.22319,-25.49017 15.61513,-52.81084 32.08551,-74.91589 11.90031,-16.221464 30.30544,-29.045729 50.89964,-29.744214 12.61511,-0.567857 25.58882,2.643562 35.67286,10.470687 10.05471,7.667767 17.66331,19.287867 18.99519,32.009837 0.53772,9.49574 -0.037,19.30467 -4.17962,28.03539 -6.09602,15.16701 -15.50897,29.21621 -18.50894,45.48897 -2.53424,16.06328 1.98015,33.10257 12.61193,45.48432 11.68816,14.55356 29.68964,23.53544 48.19609,25.04559 10.65541,0.30508 21.53984,0.67007 31.81897,-2.66824 31.37841,-8.48334 57.67329,-33.65973 67.04266,-64.84379 1.66173,-6.12169 3.96118,-12.38066 3.63309,-18.79327 -0.39208,-1.55577 -2.31876,-0.91985 -2.38086,0.47851 -1.49707,7.54056 -2.67081,15.22777 -5.61331,22.39642 -8.77814,23.57645 -27.27482,43.31619 -50.434,53.27772 -23.75615,10.66008 -53.12437,10.80848 -75.43707,-3.53742 -16.67259,-10.6008 -28.40458,-29.96818 -26.93066,-50.04492 -0.0663,-15.03537 8.30662,-28.12597 14.24172,-41.41546 6.00035,-12.76264 11.78289,-26.98795 8.56469,-41.32369 -2.03931,-12.24085 -9.07721,-23.24236 -18.74699,-30.893119 -10.114,-8.26151 -23.16569,-12.487229 -36.17856,-12.261285 z"
       class="cord" />
    <path
       id="light-2"
       d="m 158.03798,178.02473 c -2.17065,4.2294 -11.30448,3.51299 -17.0157,3.25288 -9.33899,-0.72818 -19.06145,-0.46777 -27.87682,-4.09592 -5.73968,-2.39594 -11.21825,-6.43039 -13.613455,-12.36133 -2.156915,-4.83873 -2.119271,-10.87042 1.109425,-15.23775 3.72956,-5.1502 10.53115,-7.18365 16.66333,-6.51436 5.4616,0.43221 10.46824,2.99257 15.03259,5.85931 7.47831,5.14516 11.95733,8.68044 18.51367,14.87356 3.13762,3.41221 9.63948,9.32386 7.18696,14.22361 z"
       class="light -red"/>
    <path
       id="filament-2"
       d="m 122.3002,153.99815 c -0.75476,1.41487 -2.44883,2.04723 -3.97993,2.05831 -2.08249,0.0158 -4.14199,-0.45817 -6.13654,-0.97159 -0.28518,-0.0757 -0.30727,0.3643 -0.4712,0.50396 -0.68471,1.15017 -1.37835,2.33034 -1.83793,3.59087 1.61781,1.18499 3.42804,2.32335 4.35603,4.17501 0.68472,1.27325 0.6661,2.90749 -0.16864,4.1084 -1.08687,1.70122 -3.71648,2.14807 -5.27177,0.83266 -1.35385,-1.0946 -1.71916,-2.9837 -1.49751,-4.63458 0.15813,-1.34215 0.57015,-2.63596 0.98537,-3.91647 -1.6636,-0.85643 -3.30359,-1.77255 -5.12192,-2.24817 -1.02999,-0.34211 -2.11542,-0.51048 -3.162302,-0.79468 -0.352041,-0.19748 -0.478017,-0.83523 -0.05374,-1.03207 0.422132,-0.26986 0.949822,0.0383 1.399562,0.0662 2.51354,0.46939 4.88059,1.48389 7.14184,2.65086 0.40821,0.35966 0.42069,-0.36548 0.60686,-0.61452 0.48368,-1.09999 1.13122,-2.11554 1.71432,-3.16138 -2.72006,-1.09166 -5.36506,-2.4962 -7.56379,-4.46098 -0.3834,-0.28744 -0.23767,-0.91078 0.20584,-1.04624 0.53808,-0.12279 0.90558,0.44855 1.31103,0.69733 1.50225,1.18615 3.15996,2.1354 4.89689,2.93686 0.62473,0.30158 1.26276,0.57762 1.91944,0.80891 1.08356,-1.47582 2.28659,-2.89995 3.75062,-4.01214 1.37303,-1.00123 3.23688,-1.58066 4.87879,-0.91427 1.67852,0.59529 2.79749,2.44961 2.48853,4.212 -0.0637,0.43264 -0.2513,0.82832 -0.38984,1.1657 z m -1.05752,-0.69174 c 0.62051,-1.14535 0.0804,-2.70763 -1.06454,-3.31539 -1.19344,-0.70129 -2.69646,-0.3863 -3.80202,0.33166 -1.41575,0.92931 -2.48379,2.29514 -3.53556,3.6067 1.53848,0.45972 3.13162,0.7427 4.73403,0.86955 1.22663,0.0969 2.68107,-0.0872 3.46066,-1.15402 0.0883,-0.12492 0.13942,-0.21571 0.20742,-0.3385 z m -8.10627,13.26085 c 0.59044,-1.00272 0.32551,-2.27478 -0.3223,-3.17984 -0.86105,-1.2419 -2.1544,-2.11264 -3.37465,-2.94141 -0.14061,-0.0362 -0.13451,0.2595 -0.1936,0.35392 -0.45759,1.63122 -1.06658,3.37276 -0.60673,5.06914 0.28454,1.10948 1.34504,2.03938 2.52805,1.95699 0.84976,-0.21758 1.63041,-0.616 1.96923,-1.2588 z"
      class="filament" />
    <path
       id="base-2"
       d="m 99.522512,164.58742 c -3.906707,-0.99058 -9.009549,-3.60631 -12.461805,-5.6236 -1.615916,-1.03409 -2.189523,-3.36544 -1.835102,-5.56895 0.264314,-2.03336 1.169991,-3.97889 2.195572,-5.78838 1.465448,-2.58697 2.806287,-5.33614 4.806213,-7.51707 1.487326,-1.65375 3.591392,-2.88288 5.481544,-2.45635 2.021993,0.6763 3.892646,1.70419 5.841566,2.54712 2.0275,0.93125 5.50004,2.22801 7.53533,3.13544 -8.61335,8.34711 -8.58519,8.44733 -11.563318,21.27179 z"
       class="base" />
    <path
       id="light-3"
       d="m 60.471337,61.783873 c -2.07016,4.279486 4.000883,11.141152 7.647001,15.544734 6.203958,7.018392 11.849437,14.938159 20.053651,19.792547 5.368634,3.140426 11.888341,5.085896 18.065991,3.427646 5.16209,-1.190941 9.95548,-4.852374 11.49878,-10.059711 1.86684,-6.078565 -0.60442,-12.733594 -4.8307,-17.226945 -3.63325,-4.100651 -8.69184,-6.55678 -13.728785,-8.47531 -8.6105,-2.873481 -14.129871,-4.321382 -23.022062,-5.827784 -4.613517,-0.450942 -13.248166,-2.083304 -15.683876,2.824823 z"
       class="light -blue" />
    <path
       id="filament-3"
       d="m 101.17148,75.853827 c -0.67531,1.454469 -0.16031,3.187824 0.75264,4.417024 1.24115,1.672283 2.85951,3.031363 4.47028,4.314819 0.23217,0.18211 -0.10589,0.464671 -0.11871,0.679654 -0.50613,1.239164 -1.03084,2.503529 -1.76063,3.629388 -1.92017,-0.578329 -3.91896,-1.338377 -5.956127,-0.964549 -1.428867,0.219833 -2.722528,1.218595 -3.178857,2.608111 -0.703999,1.892038 0.522361,4.260696 2.509022,4.71059 1.689081,0.421988 3.417382,-0.423647 4.602102,-1.594541 0.97645,-0.934302 1.76144,-2.042224 2.5339,-3.144689 1.68539,0.812708 3.40423,1.570623 4.87872,2.736137 0.89326,0.616431 1.68118,1.381735 2.53838,2.046527 0.36962,0.162202 0.95468,-0.121169 0.85641,-0.578447 -0.0387,-0.499522 -0.60239,-0.735357 -0.89546,-1.077626 -1.88807,-1.724364 -4.12319,-3.003576 -6.41636,-4.106521 -0.53292,-0.109404 0.0386,-0.555944 0.12532,-0.854518 0.5871,-1.04845 1.00812,-2.176903 1.49213,-3.272126 2.50926,1.514623 5.22314,2.780939 8.11568,3.353638 0.46033,0.133079 0.87032,-0.358558 0.71146,-0.794242 -0.22592,-0.503557 -0.90336,-0.453013 -1.3461,-0.626973 -1.85152,-0.48536 -3.60748,-1.237479 -5.29313,-2.141828 -0.61691,-0.317254 -1.22145,-0.660512 -1.80148,-1.045591 0.52603,-1.753692 0.93885,-3.571659 0.94547,-5.410219 -0.0272,-1.699099 -0.68667,-3.536152 -2.20727,-4.445955 -1.48586,-0.981836 -3.64014,-0.758891 -4.86133,0.548845 -0.30708,0.311348 -0.51008,0.699341 -0.69605,1.013086 z m 1.18901,0.427929 c 0.54094,-1.18501 2.11355,-1.694301 3.28811,-1.146037 1.27846,0.530703 1.93184,1.920437 2.02419,3.235434 0.11033,1.689911 -0.33721,3.364988 -0.75123,4.994405 -1.2933,-0.951637 -2.47841,-2.053324 -3.54442,-3.256413 -0.81587,-0.921062 -1.54447,-2.193249 -1.16204,-3.457973 0.0466,-0.1457 0.0883,-0.241189 0.1454,-0.369413 z m -5.70787,14.456207 c 0.445161,-1.075128 1.620351,-1.629432 2.733019,-1.657074 1.510001,-0.06017 2.983911,0.448286 4.380301,0.923645 0.11352,0.0905 -0.12623,0.263635 -0.16604,0.367659 -1.02697,1.347444 -2.05087,2.882191 -3.682213,3.536318 -1.057182,0.440772 -2.438147,0.153847 -3.084586,-0.840337 -0.337873,-0.809491 -0.489738,-1.672679 -0.180481,-2.330211 z"
      class="filament" />
    <path
       id="base-3"
       d="m 106.42969,100.41614 c 3.14296,2.52297 8.30368,5.02258 11.99283,6.56456 1.79854,0.66766 4.00537,-0.27792 5.5514,-1.88754 1.46442,-1.43522 2.47259,-3.32968 3.29994,-5.237958 1.18331,-2.727586 2.57116,-5.453326 3.10849,-8.363211 0.42501,-2.183213 0.13967,-4.603221 -1.33886,-5.855637 -1.75734,-1.207307 -3.7043,-2.082109 -5.55069,-3.130756 -1.96422,-1.058215 -5.09027,-3.05018 -7.04016,-4.128959 -1.47915,11.902779 -1.57614,11.940628 -10.02295,22.039501 z"
       class="base" />
    <path
       id="light-4"
       d="m 197.07173,84.410285 c 3.63553,-3.063084 0.89085,-11.804181 -0.64226,-17.311929 -2.80211,-8.938405 -4.72668,-18.472038 -10.23771,-26.250392 -3.62103,-5.05694 -8.7804,-9.492288 -15.09722,-10.497745 -5.19897,-1.017943 -11.06888,0.370169 -14.60178,4.495306 -4.18364,4.788656 -4.64146,11.872933 -2.61525,17.699256 1.64491,5.225911 5.26194,9.531605 9.07846,13.337613 6.68989,6.135386 11.13884,9.708444 18.64349,14.710503 4.02846,2.293335 11.24658,7.305366 15.47227,3.817388 z"
      class="light -green" />
    <path
       id="filament-4"
       d="m 165.64878,54.964336 c 1.20979,-1.052583 1.44651,-2.845264 1.11427,-4.339929 -0.4512,-2.033076 -1.37456,-3.934026 -2.32182,-5.762831 -0.13771,-0.260964 0.2862,-0.381083 0.38558,-0.572145 0.96752,-0.924995 1.96227,-1.865425 3.08778,-2.595748 1.51734,1.311174 3.03235,2.820332 5.04486,3.309858 1.39429,0.382038 2.98281,-0.0023 3.96616,-1.084856 1.41445,-1.440405 1.26077,-4.103276 -0.36967,-5.324302 -1.37011,-1.07418 -3.29303,-1.006953 -4.85228,-0.421046 -1.2726,0.454822 -2.4412,1.146257 -3.59612,1.837821 -1.20739,-1.429423 -2.46767,-2.822459 -3.3386,-4.487995 -0.56419,-0.927146 -0.97148,-1.947258 -1.48301,-2.903851 -0.27133,-0.298847 -0.92109,-0.278729 -1.01787,0.178867 -0.16842,0.471858 0.25011,0.9171 0.37811,1.34914 1.02062,2.344468 2.53968,4.424039 4.18363,6.366342 0.44197,0.317242 -0.26194,0.491881 -0.46293,0.729109 -0.96366,0.717841 -1.80831,1.576466 -2.69692,2.379059 -1.67334,-2.406317 -3.63479,-4.669372 -6.04226,-6.371985 -0.36603,-0.309252 -0.94088,-0.02757 -0.97352,0.43502 8.9e-4,0.551912 0.64005,0.782053 0.97335,1.121459 1.49257,1.198289 2.7891,2.601173 3.95936,4.114375 0.43388,0.541275 0.84586,1.101244 1.21841,1.689405 -1.19553,1.38667 -2.31391,2.8782 -3.0698,4.5542 -0.66815,1.562453 -0.81524,3.508741 0.20208,4.959607 0.95624,1.502468 3.01413,2.177519 4.66249,1.481545 0.40736,-0.159035 0.75095,-0.430498 1.04872,-0.641115 z m -0.9111,-0.875652 c -0.9772,0.861357 -2.62078,0.684984 -3.46961,-0.294649 -0.95086,-1.005974 -0.98063,-2.541351 -0.52863,-3.779673 0.58848,-1.587974 1.68028,-2.934876 2.72285,-4.253763 0.79273,1.396362 1.42547,2.885597 1.90812,4.418847 0.36928,1.173726 0.51568,2.632454 -0.34931,3.631241 -0.10196,0.11403 -0.17899,0.184204 -0.28342,0.277992 z m 11.10748,-10.871327 c -0.84494,0.800091 -2.14402,0.826903 -3.17122,0.398345 -1.40325,-0.560906 -2.54163,-1.626284 -3.62273,-2.629821 -0.0667,-0.128928 0.22277,-0.189231 0.30155,-0.267972 1.48722,-0.811441 3.04804,-1.795149 4.80432,-1.727066 1.14503,0.02872 2.2889,0.853917 2.47366,2.025305 -0.0217,0.876906 -0.23504,1.726979 -0.78558,2.201209 z"
      class="filament" />
    <path
       id="base-4"
       d="m 170.8654,30.393158 c -1.84071,-3.585443 -5.53325,-7.972488 -8.27275,-10.884994 -1.36985,-1.343142 -3.77045,-1.379817 -5.83853,-0.5407 -1.92244,0.713177 -3.6156,2.031733 -5.14929,3.436662 -2.19286,2.007814 -4.57172,3.930527 -6.24911,6.368255 -1.27847,1.820044 -2.00493,4.14601 -1.16574,5.892542 1.11215,1.819058 2.53303,3.411851 3.7912,5.122363 1.36184,1.767302 3.40367,4.861011 4.74404,6.641247 6.20504,-10.26458 6.30903,-10.259583 18.14018,-16.035375 z"
       class="base"/>
    <path
       id="light-5"
       d="m 294.6176,19.227242 c -2.40141,-4.102778 -11.48159,-2.881936 -17.16966,-2.306137 -9.28437,1.24395 -19.00634,1.522046 -27.6074,5.632529 -5.59828,2.709942 -10.84515,7.041422 -12.90843,13.095846 -1.8858,4.950682 -1.51438,10.971043 1.95109,15.152988 4.00888,4.935882 10.91259,6.589771 16.99833,5.582117 5.42931,-0.73383 10.28656,-3.567369 14.68526,-6.682336 7.18207,-5.551164 11.45856,-9.328925 17.66209,-15.875423 2.94396,-3.58064 9.10866,-9.843083 6.38872,-14.599584 z"
       class="light -red" />
    <path
       id="filament-5"
       d="m 260.26438,45.194958 c -0.83191,-1.370927 -2.55838,-1.908557 -4.08775,-1.834885 -2.08017,0.09949 -4.11028,0.686712 -6.07336,1.309744 -0.28055,0.09141 -0.32696,-0.346737 -0.49838,-0.477115 -0.74731,-1.110507 -1.5052,-2.250475 -2.03385,-3.483641 1.54975,-1.272714 3.2942,-2.509521 4.11829,-4.409703 0.6132,-1.309188 0.50416,-2.939891 -0.39577,-4.092768 -1.17936,-1.638452 -3.82967,-1.939079 -5.30977,-0.539607 -1.29119,1.167857 -1.5514,3.074274 -1.23871,4.710357 0.23216,1.331347 0.71517,2.600365 1.20062,3.855934 -1.61365,0.947188 -3.20043,1.952673 -4.98964,2.528201 -1.00947,0.398593 -2.08392,0.626783 -3.11347,0.968488 -0.34058,0.216654 -0.43106,0.860399 0.003,1.033457 0.43642,0.246089 0.94625,-0.09077 1.39375,-0.143568 2.48371,-0.607784 4.79098,-1.751743 6.98418,-3.042077 0.38767,-0.381693 0.44028,0.341644 0.63994,0.579992 0.54382,1.071539 1.24658,2.049694 1.88666,3.061661 -2.65547,1.240531 -5.21867,2.789306 -7.30529,4.872771 -0.3669,0.308214 -0.1869,0.922538 0.26343,1.033243 0.54405,0.09281 0.87936,-0.497986 1.27043,-0.768828 1.43429,-1.267472 3.03692,-2.307015 4.72683,-3.203382 0.60708,-0.335692 1.22886,-0.646622 1.87173,-0.913908 1.16358,1.413591 2.44359,2.768952 3.96693,3.798407 1.42634,0.923704 3.3194,1.399088 4.92192,0.642847 1.643,-0.687274 2.65762,-2.600686 2.25159,-4.343275 -0.0876,-0.428449 -0.29676,-0.813141 -0.45376,-1.142339 z m -1.01762,0.74921 c 0.68296,1.10925 0.23011,2.699034 -0.87941,3.369225 -1.1528,0.766268 -2.67094,0.534949 -3.81455,-0.120721 -1.46501,-0.849532 -2.60701,-2.154151 -3.72975,-3.405491 1.51067,-0.544165 3.08571,-0.914892 4.67864,-1.130233 1.21939,-0.164655 2.68179,-0.06128 3.51923,0.960721 0.0951,0.11984 0.15114,0.207665 0.22584,0.326502 z m -8.82778,-12.791872 c 0.64503,0.968507 0.45091,2.25328 -0.14582,3.192808 -0.79099,1.287654 -2.03417,2.228642 -3.20668,3.123678 -0.13839,0.04388 -0.14866,-0.251666 -0.21289,-0.342669 -0.54717,-1.603393 -1.25161,-3.308558 -0.88635,-5.027783 0.22269,-1.123531 1.23011,-2.110702 2.41586,-2.093909 0.8605,0.170211 1.662,0.524818 2.03588,1.147875 z"
      class="filament" />
    <path
       id="base-5"
       d="m 236.93553,35.882586 c -3.8459,1.205281 -8.79615,4.099426 -12.13146,6.304694 -1.55621,1.12194 -1.9999,3.481467 -1.52407,5.661987 0.37645,2.01561 1.38842,3.908036 2.51257,5.657981 1.60639,2.5019 3.09733,5.172646 5.21489,7.239541 1.57658,1.568906 3.74545,2.679699 5.6091,2.149209 1.98146,-0.787181 3.79236,-1.917026 5.69164,-2.866535 1.97285,-1.042037 5.36829,-2.528999 7.35024,-3.547688 -9.06214,-7.857589 -9.03956,-7.95922 -12.72291,-20.599189 z"
       class="base" />
    <path
       id="light-6"
       d="m 157.37653,106.68251 c -1.46033,4.52404 5.49883,10.48309 9.71729,14.34188 7.11241,6.09594 13.79596,13.16166 22.59114,16.83847 5.75037,2.3702 12.47605,3.39814 18.36605,0.90394 4.94857,-1.89132 9.19134,-6.1787 10.0019,-11.54909 1.01089,-6.27791 -2.35438,-12.52864 -7.15983,-16.39635 -4.16396,-3.56052 -9.51289,-5.29571 -14.76625,-6.50141 -8.92446,-1.65881 -14.59075,-2.33186 -23.60572,-2.5978 -4.63163,0.18948 -13.40888,-0.23673 -15.14458,4.96036 z"
       class="light -blue" />
    <path
       id="filament-6"
       d="m 199.62792,115.00628 c -0.46831,1.53369 0.28077,3.17948 1.35448,4.27106 1.45987,1.48518 3.25017,2.60813 5.02251,3.65723 0.25506,0.14836 -0.0408,0.47484 -0.0239,0.68953 -0.33044,1.29712 -0.6758,2.62176 -1.24339,3.83749 -1.98157,-0.30805 -4.06606,-0.78525 -6.03223,-0.1341 -1.38491,0.41475 -2.5285,1.58234 -2.78888,3.02151 -0.4364,1.97103 1.10484,4.14797 3.13456,4.31965 1.73113,0.18506 3.32633,-0.8908 4.33828,-2.21386 0.83831,-1.06001 1.46304,-2.26559 2.07611,-3.46403 1.78135,0.57256 3.58827,1.08624 5.20938,2.03732 0.96972,0.48738 1.85564,1.13673 2.79632,1.67698 0.38845,0.10969 0.92885,-0.25164 0.76847,-0.69101 -0.10717,-0.48941 -0.69803,-0.64527 -1.0355,-0.94386 -2.10778,-1.44756 -4.49794,-2.40638 -6.92128,-3.1826 -0.54292,-0.0349 -0.0385,-0.55595 0.006,-0.86364 0.43693,-1.11938 0.69834,-2.29511 1.02672,-3.44661 2.69412,1.15418 5.55668,2.03421 8.50056,2.20261 0.47429,0.0683 0.81257,-0.47514 0.59515,-0.88476 -0.29319,-0.46759 -0.95718,-0.32413 -1.41969,-0.43538 -1.90075,-0.22543 -3.74364,-0.72825 -5.53789,-1.39154 -0.65476,-0.22917 -1.30086,-0.48579 -1.92844,-0.78722 0.2792,-1.80947 0.43742,-3.66699 0.19047,-5.48891 -0.26121,-1.67912 -1.16768,-3.40769 -2.7992,-4.09914 -1.60705,-0.76759 -3.71001,-0.24974 -4.73922,1.21389 -0.26122,0.35071 -0.40879,0.76299 -0.54972,1.09938 z m 1.23666,0.25989 c 0.37238,-1.24827 1.85974,-1.96953 3.09868,-1.58845 1.33943,0.34935 2.17819,1.63572 2.45097,2.92543 0.34228,1.65856 0.12998,3.37934 -0.0554,5.05028 -1.41216,-0.76422 -2.73785,-1.69199 -3.95956,-2.7366 -0.93508,-0.79977 -1.83214,-1.95935 -1.62774,-3.26472 0.026,-0.15073 0.0542,-0.25106 0.0931,-0.38593 z m -3.66011,15.10515 c 0.29267,-1.12624 1.3802,-1.83729 2.47843,-2.01808 1.48729,-0.2678 3.01723,0.0326 4.46582,0.31086 0.12491,0.074 -0.0887,0.27852 -0.11376,0.38704 -0.83137,1.47617 -1.63388,3.13744 -3.15945,4.01025 -0.98631,0.58233 -2.39365,0.48855 -3.17099,-0.407 -0.44626,-0.75518 -0.71569,-1.58918 -0.50005,-2.28307 z"
      class="filament" />
    <path
       id="base-6"
       d="m 208.22259,138.60898 c 3.46082,2.06551 8.91689,3.82968 12.78342,4.84826 1.87342,0.41331 3.92879,-0.82753 5.23812,-2.63494 1.25255,-1.62343 1.98987,-3.6388 2.5462,-5.64293 0.79593,-2.86469 1.7947,-5.75575 1.92567,-8.71193 0.11993,-2.22097 -0.49636,-4.57852 -2.13345,-5.61511 -1.90703,-0.95347 -3.956,-1.55147 -5.92935,-2.33551 -2.09137,-0.77728 -5.46221,-2.3192 -7.54223,-3.11882 0.17615,11.99304 0.0853,12.0439 -6.88838,23.21098 z"
       class="base" />
    <path
       id="light-7"
       d="m 283.81665,141.23196 c -4.60507,-1.18017 -10.12618,6.13128 -13.71905,10.57842 -5.64835,7.47282 -12.29095,14.57704 -15.42154,23.58113 -2.01314,5.88488 -2.62674,12.66094 0.22393,18.38692 2.1912,4.82329 6.73067,8.79518 12.14066,9.27491 6.32808,0.62404 12.36069,-3.11818 15.92646,-8.15175 3.2985,-4.37445 4.70243,-9.81971 5.58374,-15.13712 1.10846,-9.00938 1.4328,-14.70628 1.14546,-23.72059 -0.47312,-4.61129 -0.58592,-13.39816 -5.87966,-14.81192 z"
      class="light -green" />
    <path
       id="filament-7"
       d="m 278.09932,183.91424 c -1.55952,-0.37339 -3.15628,0.4752 -4.17997,1.61382 -1.39287,1.5482 -2.40394,3.40398 -3.34239,5.23732 -0.13244,0.26368 -0.47644,-0.0116 -0.68969,0.0185 -1.31494,-0.25029 -2.65826,-0.51378 -3.90651,-1.00575 0.18597,-1.99673 0.53445,-4.10656 -0.23604,-6.0291 -0.49888,-1.35687 -1.7344,-2.42672 -3.18683,-2.59837 -1.99408,-0.31471 -4.07242,1.35711 -4.11931,3.39354 -0.0786,1.73922 1.09308,3.26545 2.4757,4.19437 1.10942,0.77173 2.35104,1.32136 3.58482,1.85979 -0.46226,1.81311 -0.86417,3.64813 -1.71406,5.32451 -0.427,0.99778 -1.02081,1.92185 -1.50236,2.89388 -0.0857,0.39445 0.30812,0.91168 0.73683,0.72466 0.48192,-0.13698 0.60125,-0.73628 0.87859,-1.09143 1.31559,-2.19258 2.12604,-4.63703 2.75221,-7.1034 0.002,-0.54404 0.55255,-0.0725 0.8624,-0.0467 1.14407,0.36748 2.33361,0.5563 3.50308,0.81345 -0.98681,2.75983 -1.68965,5.67096 -1.67722,8.61963 -0.0391,0.47758 0.52406,0.7819 0.91958,0.53978 0.44874,-0.32131 0.26483,-0.97526 0.34751,-1.44372 0.10846,-1.911 0.49733,-3.78125 1.04936,-5.61279 0.18858,-0.66759 0.4051,-1.3282 0.66748,-1.97309 1.82319,0.16773 3.68692,0.21175 5.49026,-0.14645 1.65994,-0.36368 3.32968,-1.37444 3.91979,-3.04529 0.6676,-1.65109 0.0218,-3.71834 -1.5022,-4.65587 -0.36608,-0.23922 -0.78663,-0.36123 -1.13103,-0.48127 z m -0.18358,1.25027 c 1.26876,0.29513 2.07986,1.73548 1.77547,2.99545 -0.26657,1.35833 -1.49909,2.27439 -2.76964,2.62573 -1.63445,0.44335 -3.36501,0.33695 -5.04417,0.25437 0.67619,-1.45637 1.52092,-2.83645 2.48865,-4.11992 0.74093,-0.98236 1.84332,-1.94883 3.15877,-1.82486 0.15205,0.0168 0.25391,0.0387 0.39092,0.0692 z m -15.30115,-2.72701 c 1.14206,0.22306 1.91846,1.26495 2.16625,2.35003 0.3585,1.46806 0.1525,3.01354 -0.0364,4.47648 -0.0662,0.12921 -0.28343,-0.0714 -0.39329,-0.0898 -1.52437,-0.73929 -3.23172,-1.43843 -4.19643,-2.9076 -0.64171,-0.94875 -0.63441,-2.35919 0.2118,-3.18998 0.72638,-0.49173 1.5423,-0.8118 2.24811,-0.63911 z"
      class="filament" />
    <path
       id="base-7"
       d="m 255.06804,193.94001 c -1.84942,3.58096 -3.27571,9.13494 -4.05529,13.05665 -0.29766,1.89524 1.06688,3.87065 2.95117,5.0667 1.69718,1.15064 3.75397,1.763 5.78844,2.19539 2.90811,0.61878 5.85497,1.43839 8.81362,1.38785 2.22414,-0.0165 4.53946,-0.77617 5.47372,-2.47375 0.83474,-1.9619 1.30598,-4.04369 1.96755,-6.0614 0.64757,-2.13509 1.97989,-5.59414 2.65047,-7.71927 -11.95967,0.91121 -12.01601,0.82366 -23.58968,-5.45217 z"
       class="base" />
    <path
       id="light-8"
       d="m 388.24785,234.72152 c 2.90194,-3.7654 -1.63678,-11.72405 -4.30479,-16.78047 -4.63676,-8.13925 -8.54243,-17.04654 -15.57989,-23.47682 -4.61253,-4.17241 -10.59627,-7.41066 -16.98252,-7.05143 -5.29655,0.10959 -10.73767,2.71284 -13.31375,7.49426 -3.07102,5.56802 -2.01364,12.58789 1.20389,17.85088 2.7174,4.75727 7.16646,8.19643 11.70432,11.10493 7.84044,4.5744 12.94681,7.12093 21.34268,10.4148 4.42366,1.38533 12.54167,4.7498 15.93006,0.44385 z"
       class="light -red" />
    <path
       id="filament-8"
       d="m 351.28739,212.62197 c 0.95861,-1.28553 0.80914,-3.08758 0.167,-4.47757 -0.87274,-1.89085 -2.1788,-3.55229 -3.4929,-5.13816 -0.19,-0.22576 0.19872,-0.43318 0.25525,-0.64099 0.74896,-1.10939 1.52126,-2.23966 2.46597,-3.19238 1.76122,0.95896 3.56221,2.11188 5.63277,2.16276 1.44362,0.0772 2.91426,-0.63579 3.64523,-1.90255 1.07622,-1.70797 0.36043,-4.27743 -1.49216,-5.12428 -1.56701,-0.75865 -3.43177,-0.28451 -4.83098,0.61922 -1.14696,0.71476 -2.14202,1.63863 -3.1237,2.55973 -1.48346,-1.14035 -3.01087,-2.2339 -4.21571,-3.67644 -0.74824,-0.78615 -1.36291,-1.69647 -2.06596,-2.52258 -0.32862,-0.2344 -0.95928,-0.0767 -0.95665,0.39098 -0.0644,0.49687 0.4392,0.84305 0.65604,1.23805 1.49532,2.07418 3.42144,3.78364 5.44043,5.33243 0.49927,0.21612 -0.15148,0.53629 -0.2975,0.8108 -0.78919,0.90615 -1.43219,1.92459 -2.13004,2.89762 -2.14628,-1.99598 -4.54367,-3.79076 -7.25785,-4.94316 -0.42336,-0.22445 -0.92526,0.17291 -0.8589,0.63188 0.1181,0.53912 0.79155,0.62825 1.18934,0.88912 1.71304,0.85391 3.27798,1.94939 4.74294,3.17949 0.53895,0.43676 1.06047,0.89645 1.54945,1.39205 -0.87371,1.60897 -1.64976,3.30402 -2.0324,5.10233 -0.32102,1.66872 -0.0514,3.60184 1.25093,4.80351 1.25355,1.26507 3.40787,1.48761 4.87078,0.45739 0.36429,-0.24193 0.64238,-0.58018 0.88861,-0.84924 z m -1.0763,-0.66214 c -0.77195,1.04926 -2.41549,1.22603 -3.45303,0.44904 -1.14284,-0.78104 -1.49806,-2.27506 -1.3194,-3.58113 0.23775,-1.67674 1.01855,-3.22482 1.75718,-4.73506 1.07125,1.19612 2.00587,2.51697 2.80318,3.91272 0.61017,1.0685 1.06307,2.46285 0.42997,3.62257 -0.0754,0.13309 -0.13578,0.21802 -0.21791,0.33185 z m 8.54486,-12.98257 c -0.65572,0.9613 -1.91946,1.26344 -3.01424,1.06284 -1.49038,-0.25004 -2.82908,-1.04931 -4.09867,-1.80031 -0.0926,-0.11181 0.1775,-0.23223 0.23775,-0.32591 1.28093,-1.10882 2.59719,-2.40161 4.32785,-2.70813 1.125,-0.21515 2.41805,0.34825 2.8474,1.45366 0.16511,0.8615 0.13715,1.7375 -0.30009,2.31785 z"
      class="filament" />
    <path
       id="base-8"
       d="m 351.16586,187.50343 c -2.56028,-3.11264 -7.10041,-6.61526 -10.39603,-8.87941 -1.62389,-1.02153 -3.9775,-0.54746 -5.82016,0.71179 -1.72709,1.10524 -3.10153,2.75335 -4.30181,4.45199 -1.71635,2.42777 -3.63252,4.8119 -4.75384,7.55029 -0.86271,2.05007 -1.07854,4.47727 0.11247,6.0057 1.47316,1.54132 3.19994,2.79596 4.79272,4.20019 1.70616,1.43771 4.35852,4.02713 6.04645,5.48203 3.88317,-11.34835 3.98584,-11.36555 14.3202,-19.52258 z"
       class="base" />
    <path
       id="light-9"
       d="m 308.67917,116.20327 c -1.76799,4.41291 4.76488,10.83643 8.70799,14.97619 6.67634,6.57065 12.85815,14.07927 21.37965,18.35223 5.57375,2.76004 12.21281,4.24809 18.2604,2.16486 5.06693,-1.54653 9.59449,-5.53198 10.77247,-10.83392 1.44023,-6.19352 -1.4872,-12.66088 -6.01529,-16.84991 -3.90924,-3.83846 -9.12618,-5.93738 -14.28418,-7.50151 -8.78925,-2.26863 -14.39585,-3.32976 -23.37118,-4.21505 -4.63369,-0.12949 -13.36085,-1.15831 -15.44986,3.90711 z"
       class="light -blue" />
    <path
       id="filament-9"
       d="m 350.2581,127.41301 c -0.57268,1.49785 0.0614,3.19126 1.05755,4.35409 1.35427,1.58206 3.0631,2.82548 4.75911,3.99399 0.24425,0.16555 -0.0734,0.4709 -0.0712,0.68625 -0.41886,1.27132 -0.8545,2.56907 -1.50436,3.74289 -1.95569,-0.44359 -4.00243,-1.06301 -6.00872,-0.54862 -1.41015,0.31852 -2.63134,1.40471 -2.99007,2.82256 -0.57092,1.93635 0.81696,4.21413 2.83007,4.52499 1.7143,0.30367 3.37971,-0.65993 4.48026,-1.91027 0.90922,-0.99985 1.61538,-2.15961 2.30942,-3.31305 1.73775,0.69371 3.50508,1.33044 5.05694,2.39075 0.93391,0.55291 1.77307,1.26165 2.67437,1.86532 0.37999,0.13614 0.94396,-0.18717 0.81417,-0.63652 -0.0733,-0.49564 -0.652,-0.69176 -0.96813,-1.01285 -2.00325,-1.58909 -4.32181,-2.71001 -6.68603,-3.65105 -0.53923,-0.0721 -1.4e-4,-0.55728 0.0657,-0.86116 0.51288,-1.08668 0.85452,-2.24165 1.26131,-3.36784 2.60838,1.33672 5.40364,2.41153 8.32897,2.78199 0.46846,0.10079 0.84331,-0.41813 0.65458,-0.84173 -0.26033,-0.48666 -0.93263,-0.38919 -1.38638,-0.53199 -1.88075,-0.35562 -3.6847,-0.98398 -5.42909,-1.7691 -0.63745,-0.27365 -1.26436,-0.5741 -1.86974,-0.91797 0.40299,-1.78598 0.68857,-3.62823 0.5675,-5.46281 -0.14511,-1.69311 -0.93056,-3.47993 -2.51067,-4.28195 -1.55045,-0.87629 -3.68405,-0.50428 -4.81148,0.88509 -0.28472,0.33193 -0.46029,0.73308 -0.62402,1.05898 z m 1.21586,0.34433 c 0.45734,-1.21972 1.99079,-1.83698 3.20058,-1.3716 1.31223,0.44064 2.06054,1.78165 2.24398,3.08706 0.22742,1.67817 -0.10273,3.38028 -0.4026,5.03451 -1.35626,-0.85953 -2.61501,-1.87626 -3.76199,-3.00242 -0.87786,-0.86218 -1.69305,-2.08071 -1.39936,-3.36893 0.0363,-0.14859 0.0713,-0.24674 0.11939,-0.37862 z m -4.69025,14.81767 c 0.36943,-1.10345 1.50329,-1.73802 2.61136,-1.84286 1.50218,-0.16488 3.00784,0.24 4.43387,0.61724 0.11952,0.0824 -0.10762,0.27177 -0.14012,0.3783 -0.93092,1.41551 -1.84578,3.01765 -3.42776,3.78348 -1.02402,0.51312 -2.42157,0.32278 -3.13549,-0.62411 -0.39327,-0.78408 -0.60471,-1.63463 -0.34186,-2.31205 z"
      class="filament" />
    <path
       id="base-9"
       d="m 357.20924,151.55089 c 3.31057,2.29863 8.63241,4.43384 12.41973,5.71592 1.84056,0.54117 3.9764,-0.55538 5.40693,-2.26847 1.36122,-1.53345 2.2354,-3.49334 2.92824,-5.45447 0.99106,-2.80317 2.18628,-5.6187 2.52024,-8.55888 0.27239,-2.20745 -0.18031,-4.6018 -1.74225,-5.74853 -1.83693,-1.08236 -3.83993,-1.81985 -5.75469,-2.73775 -2.03296,-0.91926 -5.28978,-2.68935 -7.30988,-3.63012 -0.64905,11.97676 -0.74317,12.02125 -8.46832,22.6823 z"
       class="base" />
  </g>
</svg>
